<svg width="202" height="202" viewBox="0 0 202 202" fill="none" xmlns="http://www.w3.org/2000/svg">
<path d="M201.678 25.0713V189.607C201.678 196.273 196.273 201.678 189.605 201.678H25.0713C21.7392 201.678 18.7234 200.329 16.5386 198.146C14.3522 195.961 13 192.942 13 189.607V25.0713C13 18.4054 18.4037 13 25.0713 13H189.605C191.898 13 194.043 13.6395 195.868 14.7502C196.696 15.2531 197.46 15.8542 198.141 16.5353L198.144 16.5386C199.508 17.9041 200.549 19.5943 201.137 21.4844C201.195 21.6726 201.248 21.8624 201.298 22.0539C201.372 22.3436 201.437 22.6367 201.49 22.9348C201.525 23.133 201.555 23.3328 201.582 23.5343C201.595 23.6442 201.608 23.7541 201.618 23.8657C201.658 24.262 201.678 24.665 201.678 25.0713Z" fill="#EB002E"/>
<path d="M136.426 173.149C134.499 172.153 133.012 170.741 131.965 168.916C130.917 167.091 130.394 164.996 130.394 162.632V150.365C130.394 147.966 130.917 145.863 131.965 144.056C133.012 142.249 134.499 140.845 136.426 139.85C138.352 138.854 140.582 138.354 143.117 138.354C145.651 138.354 147.821 138.844 149.731 139.825C151.639 140.805 153.118 142.139 154.166 143.828C155.213 145.518 155.738 147.426 155.738 149.555V149.961C155.738 150.131 155.678 150.274 155.559 150.392C155.441 150.51 155.298 150.57 155.128 150.57H150.515C150.346 150.57 150.202 150.512 150.084 150.392C149.966 150.274 149.906 150.131 149.906 149.961V149.708C149.906 147.883 149.29 146.381 148.056 145.197C146.822 144.014 145.175 143.423 143.113 143.423C141.052 143.423 139.397 144.039 138.146 145.273C136.895 146.507 136.271 148.137 136.271 150.164V162.835C136.271 164.861 136.93 166.493 138.248 167.726C139.565 168.96 141.272 169.576 143.366 169.576C145.461 169.576 146.99 169.043 148.156 167.979C149.321 166.915 149.904 165.453 149.904 163.594V160.452C149.904 160.284 149.819 160.199 149.651 160.199H143.416C143.247 160.199 143.103 160.14 142.985 160.021C142.867 159.902 142.807 159.759 142.807 159.589V155.839C142.807 155.671 142.865 155.528 142.985 155.408C143.103 155.29 143.247 155.23 143.416 155.23H155.125C155.293 155.23 155.436 155.29 155.556 155.408C155.674 155.526 155.734 155.669 155.734 155.839V162.327C155.734 166.214 154.594 169.238 152.314 171.399C150.032 173.562 146.967 174.643 143.115 174.643C140.581 174.643 138.351 174.145 136.424 173.148L136.426 173.149Z" fill="white"/>
<path d="M118.13 173.732L116.458 168.308C116.39 168.174 116.306 168.105 116.205 168.105H102.825C102.723 168.105 102.638 168.174 102.571 168.308L100.9 173.732C100.798 174.07 100.578 174.238 100.24 174.238H95.1712C94.968 174.238 94.8165 174.18 94.7149 174.06C94.6133 173.942 94.5967 173.765 94.6649 173.527L105.664 139.265C105.765 138.927 105.985 138.759 106.323 138.759H112.659C112.998 138.759 113.217 138.929 113.319 139.265L124.368 173.527C124.401 173.596 124.418 173.679 124.418 173.78C124.418 174.085 124.231 174.237 123.86 174.237H118.791C118.453 174.237 118.233 174.068 118.131 173.73L118.13 173.732ZM104.343 163.493H114.633C114.836 163.493 114.903 163.391 114.836 163.188L109.615 146.209C109.582 146.074 109.531 146.006 109.464 146.006C109.397 146.006 109.346 146.074 109.312 146.209L104.142 163.188C104.109 163.391 104.175 163.493 104.345 163.493H104.343Z" fill="white"/>
<path d="M81.5861 138.759H86.2488C86.4169 138.759 86.5602 138.819 86.6801 138.935C86.7983 139.054 86.8582 139.197 86.8582 139.367V173.629C86.8582 173.799 86.7983 173.942 86.6801 174.06C86.5618 174.178 86.4186 174.238 86.2488 174.238H81.5861C81.4162 174.238 81.273 174.18 81.1548 174.06C81.0366 173.942 80.9766 173.799 80.9766 173.629V149.453C80.9766 149.351 80.9333 149.285 80.8501 149.25C80.7651 149.216 80.7052 149.25 80.6719 149.351L74.3356 159.083C74.1658 159.354 73.9293 159.489 73.6263 159.489H71.2949C70.9902 159.489 70.7537 159.354 70.5855 159.083L64.1993 149.403C64.166 149.301 64.1061 149.268 64.0212 149.301C63.9362 149.335 63.8946 149.403 63.8946 149.505V173.631C63.8946 173.8 63.8347 173.944 63.7164 174.062C63.5982 174.18 63.455 174.24 63.2851 174.24H58.6225C58.4526 174.24 58.3094 174.182 58.1912 174.062C58.0729 173.944 58.0146 173.8 58.0146 173.631V139.368C58.0146 139.2 58.0729 139.057 58.1912 138.937C58.3094 138.819 58.4526 138.76 58.6225 138.76H63.2851C63.5899 138.76 63.8247 138.895 63.9945 139.165L72.2558 151.684C72.3224 151.753 72.3906 151.786 72.4589 151.786C72.5272 151.786 72.5772 151.753 72.6105 151.684L80.8717 139.165C81.0399 138.895 81.278 138.76 81.5811 138.76L81.5861 138.759Z" fill="white"/>
<path d="M136.854 92.2203H156.25C156.435 92.2203 156.585 92.3702 156.585 92.555L156.615 111.594C156.615 118.388 154.414 123.523 150.009 127C145.605 130.479 139.956 132.218 133.06 132.218C126.165 132.218 120.739 130.626 116.235 127.443C111.729 124.261 109.477 119.445 109.477 112.997V56.3711C109.477 49.9033 111.724 45.0774 116.22 41.8935C120.714 38.7096 126.328 37.1193 133.062 37.1193C139.796 37.1193 145.606 38.8528 150.011 42.3215C154.414 45.7902 156.617 50.9008 156.617 57.6533C156.617 57.7116 156.587 76.9667 156.587 76.9667C156.587 77.1516 156.437 77.3014 156.252 77.3014H136.855C136.379 77.3014 135.994 76.9151 135.994 76.4405V56.5859C135.994 55.8132 135.72 55.1421 135.17 54.5726C134.601 54.0231 133.93 53.7483 133.157 53.7483C132.384 53.7483 131.753 54.0131 131.205 54.541C130.656 55.0705 130.361 55.7116 130.321 56.4627L130.291 56.6159V112.754L130.321 112.908C130.361 113.66 130.657 114.291 131.205 114.799C131.755 115.329 132.404 115.592 133.157 115.592C133.91 115.592 134.601 115.317 135.17 114.768C135.72 114.198 135.994 113.527 135.994 112.754V93.0829C135.994 92.6066 136.381 92.222 136.855 92.222H136.854V92.2203Z" fill="white"/>
<path d="M84.6834 38.34C87.8973 38.2784 91.1012 39.021 94.2935 40.5664C97.0794 41.9302 99.2759 43.8103 100.883 46.2115C102.876 49.2223 103.904 53.412 103.964 58.7824V81.6961C103.902 90.6251 100.678 96.6566 94.2918 99.7889C91.0979 101.356 87.894 102.107 84.6817 102.047H79.686C79.2098 102.047 78.8251 102.433 78.8251 102.908V130.474C78.8251 130.951 78.4388 131.335 77.9642 131.335H58.8789C58.4026 131.335 58.0179 130.949 58.0179 130.474V39.2009C58.0179 38.7246 58.4043 38.34 58.8789 38.34H84.6834ZM84.7134 56.889C84.7134 56.198 84.4236 55.6085 83.8441 55.1189C83.2646 54.631 82.5985 54.3862 81.8458 54.3862H79.8092C79.333 54.3862 78.9483 54.7725 78.9483 55.2471V83.9125C78.9483 84.3888 79.3347 84.7735 79.8092 84.7735H81.8458C82.3138 84.7735 82.7717 84.6969 83.2197 84.5453C83.6659 84.3921 84.0273 84.134 84.3021 83.7677C84.5768 83.4013 84.7134 82.9034 84.7134 82.2723V56.8874V56.889Z" fill="white"/>
</svg>
