<svg width="87" height="86" viewBox="0 0 87 86" fill="none" xmlns="http://www.w3.org/2000/svg">
<path d="M85.1397 9.75124L78.0027 1.70281C78.5659 2.26987 80.26 4.91805 80.5028 5.70295C80.5028 27.8098 80.6301 50.434 80.5028 72.7052C80.5028 75.4734 77.0027 79.5412 74.5026 79.6233L8.00035 79.7054C6.62431 79.7054 4.90245 79.112 4.00022 78.2054L10.8313 84.4772L10.8327 84.4786C11.7349 85.3852 12.9803 85.9454 14.3563 85.9454H79.9334C82.6869 85.9454 86.6003 82.3915 86.6003 79.6233V13.2961C86.6003 11.9116 86.0419 10.6585 85.1397 9.75124Z" fill="#7E011F"/>
<rect x="0.884896" width="80.0027" height="80.0027" rx="7.99658" fill="#EB002E"/>
<path d="M54.3159 70.9811C53.4239 70.52 52.7354 69.8662 52.2504 69.0212C51.7655 68.1762 51.5234 67.2063 51.5234 66.1115V60.4324C51.5234 59.3215 51.7655 58.3477 52.2504 57.5112C52.7354 56.6747 53.4239 56.0247 54.3159 55.5637C55.2079 55.1026 56.2403 54.8713 57.4137 54.8713C58.5872 54.8713 59.5918 55.098 60.4761 55.5521C61.3596 56.0062 62.0443 56.6238 62.5292 57.4056C63.0142 58.1881 63.257 59.0717 63.257 60.057V60.2451C63.257 60.3237 63.2293 60.39 63.1745 60.4448C63.1198 60.4995 63.0535 60.5273 62.9748 60.5273H60.8392C60.7606 60.5273 60.6943 60.5003 60.6395 60.4448C60.5848 60.39 60.557 60.3237 60.557 60.2451V60.1279C60.557 59.2829 60.2718 58.5875 59.7005 58.0393C59.1292 57.4919 58.3666 57.2182 57.4122 57.2182C56.4577 57.2182 55.6913 57.5035 55.1123 58.0748C54.5333 58.6461 54.2442 59.4009 54.2442 60.3392V66.2056C54.2442 67.1439 54.5495 67.8995 55.1593 68.47C55.7692 69.0413 56.5595 69.3265 57.5294 69.3265C58.4993 69.3265 59.207 69.0798 59.7467 68.5872C60.2864 68.0945 60.5563 67.4176 60.5563 66.5572V65.1023C60.5563 65.0244 60.5169 64.9851 60.4391 64.9851H57.5525C57.4738 64.9851 57.4075 64.9581 57.3528 64.9026C57.2981 64.8479 57.2703 64.7816 57.2703 64.7029V62.9667C57.2703 62.8888 57.2973 62.8225 57.3528 62.767C57.4075 62.7123 57.4738 62.6845 57.5525 62.6845H62.9733C63.0512 62.6845 63.1175 62.7123 63.173 62.767C63.2277 62.8217 63.2555 62.888 63.2555 62.9667V65.9704C63.2555 67.7699 62.7274 69.17 61.6719 70.1708C60.6156 71.1723 59.1962 71.6727 57.4129 71.6727C56.2395 71.6727 55.2071 71.4421 54.3151 70.9803L54.3159 70.9811Z" fill="white"/>
<path d="M45.8447 71.2502L45.0707 68.7391C45.0391 68.6766 45.0005 68.645 44.9535 68.645H38.7586C38.7116 68.645 38.6723 68.6766 38.6414 68.7391L37.8673 71.2502C37.8203 71.4067 37.7185 71.4846 37.562 71.4846H35.2151C35.1211 71.4846 35.0509 71.4576 35.0039 71.4021C34.9569 71.3473 34.9492 71.2656 34.9808 71.1553L40.0731 55.2923C40.1202 55.1358 40.2219 55.0579 40.3784 55.0579H43.312C43.4686 55.0579 43.5703 55.1365 43.6174 55.2923L48.7329 71.1553C48.7483 71.187 48.756 71.2255 48.756 71.2725C48.756 71.4136 48.6696 71.4838 48.4977 71.4838H46.1508C45.9943 71.4838 45.8925 71.4059 45.8455 71.2494L45.8447 71.2502ZM39.4617 66.5094H44.2257C44.3197 66.5094 44.3506 66.4623 44.3197 66.3683L41.9027 58.5073C41.8873 58.4449 41.8634 58.4132 41.8325 58.4132C41.8017 58.4132 41.7778 58.4449 41.7624 58.5073L39.3685 66.3683C39.353 66.4623 39.3839 66.5094 39.4625 66.5094H39.4617Z" fill="white"/>
<path d="M54.5137 33.5116H63.4941C63.5797 33.5116 63.6491 33.581 63.6491 33.6666L63.663 42.4813C63.663 45.6269 62.6437 48.0046 60.6045 49.6145C58.5652 51.2251 55.95 52.03 52.7573 52.03C49.5647 52.03 47.0528 51.2929 44.9673 49.8196C42.881 48.3462 41.8386 46.1165 41.8386 43.1312V16.9138C41.8386 13.9193 42.8787 11.685 44.9604 10.2109C47.0413 8.73673 49.6402 8.00044 52.7581 8.00044C55.876 8.00044 58.566 8.80304 60.6052 10.409C62.6437 12.015 63.6637 14.3811 63.6637 17.5075C63.6637 17.5345 63.6499 26.4494 63.6499 26.4494C63.6499 26.535 63.5805 26.6044 63.4949 26.6044H54.5144C54.2939 26.6044 54.1158 26.4255 54.1158 26.2058V17.0133C54.1158 16.6555 53.9886 16.3448 53.7342 16.0812C53.4705 15.8267 53.1598 15.6995 52.8021 15.6995C52.4443 15.6995 52.1521 15.8221 51.8985 16.0665C51.644 16.3117 51.5076 16.6085 51.4891 16.9562L51.4752 17.0272V43.0187L51.4891 43.0896C51.5076 43.4381 51.6448 43.7303 51.8985 43.9654C52.1529 44.2106 52.4536 44.3324 52.8021 44.3324C53.1506 44.3324 53.4705 44.2052 53.7342 43.9508C53.9886 43.6871 54.1158 43.3764 54.1158 43.0187V33.911C54.1158 33.6905 54.2947 33.5124 54.5144 33.5124H54.5137V33.5116Z" fill="white"/>
<path d="M28.9256 55.0579H31.0844C31.1623 55.0579 31.2286 55.0857 31.2841 55.1396C31.3388 55.1944 31.3666 55.2607 31.3666 55.3393V71.2024C31.3666 71.281 31.3388 71.3473 31.2841 71.4021C31.2293 71.4568 31.163 71.4846 31.0844 71.4846H28.9256C28.847 71.4846 28.7807 71.4576 28.726 71.4021C28.6712 71.3473 28.6435 71.281 28.6435 71.2024V60.0092C28.6435 59.9622 28.6234 59.9313 28.5849 59.9151C28.5455 59.8997 28.5178 59.9151 28.5024 59.9622L25.5688 64.4678C25.4901 64.5935 25.3806 64.6559 25.2403 64.6559H24.1609C24.0199 64.6559 23.9104 64.5935 23.8325 64.4678L20.8758 59.9861C20.8603 59.939 20.8326 59.9236 20.7933 59.939C20.754 59.9544 20.7347 59.9861 20.7347 60.0331V71.2031C20.7347 71.2818 20.7069 71.3481 20.6522 71.4028C20.5974 71.4576 20.5311 71.4853 20.4525 71.4853H18.2937C18.2151 71.4853 18.1488 71.4583 18.094 71.4028C18.0393 71.3481 18.0123 71.2818 18.0123 71.2031V55.3401C18.0123 55.2622 18.0393 55.1959 18.094 55.1404C18.1488 55.0857 18.2151 55.0587 18.2937 55.0587H20.4525C20.5936 55.0587 20.7023 55.1211 20.7809 55.246L24.6058 61.0423C24.6366 61.0739 24.6683 61.0893 24.6999 61.0893C24.7315 61.0893 24.7546 61.0739 24.77 61.0423L28.5949 55.246C28.6728 55.1211 28.783 55.0587 28.9233 55.0587L28.9256 55.0579Z" fill="white"/>
<path d="M30.3596 8.565C31.8476 8.53647 33.331 8.88033 34.809 9.59581C36.0988 10.2272 37.1158 11.0977 37.8598 12.2095C38.7826 13.6034 39.2583 15.5432 39.2861 18.0296V28.6384C39.2576 32.7724 37.7649 35.565 34.8082 37.0152C33.3294 37.7407 31.8461 38.0884 30.3588 38.0606H28.0459C27.8254 38.0606 27.6473 38.2395 27.6473 38.4592V51.2222C27.6473 51.4427 27.4684 51.6208 27.2487 51.6208H18.4124C18.1919 51.6208 18.0138 51.4419 18.0138 51.2222V8.9636C18.0138 8.7431 18.1926 8.565 18.4124 8.565H30.3596ZM30.3735 17.153C30.3735 16.8331 30.2393 16.5601 29.971 16.3335C29.7027 16.1076 29.3943 15.9942 29.0458 15.9942H28.1029C27.8824 15.9942 27.7043 16.1731 27.7043 16.3928V29.6646C27.7043 29.8851 27.8832 30.0632 28.1029 30.0632H29.0458C29.2625 30.0632 29.4745 30.0277 29.6819 29.9576C29.8885 29.8866 30.0558 29.7671 30.183 29.5975C30.3102 29.4279 30.3735 29.1974 30.3735 28.9052V17.1523V17.153Z" fill="white"/>
</svg>
